<svg xmlns="http://www.w3.org/2000/svg" xmlns:xlink="http://www.w3.org/1999/xlink" viewBox="0 0 510.64 161.36"><defs><style>.cls-1{fill:#7a4c0a;}.cls-2{fill:#b27110;}.cls-3{fill:#a0650e;}.cls-4{fill:#915c0d;}.cls-5{fill:none;stroke-width:6px;stroke:url(#linear-gradient);}.cls-6{fill:#ec9d27;}</style><linearGradient id="linear-gradient" x1="87.6" y1="147.39" x2="87.6" y2="16.43" gradientUnits="userSpaceOnUse"><stop offset="0" stop-color="#ec9d27"/><stop offset="1" stop-color="#ec9d27"/></linearGradient></defs><g id="Layer_3" data-name="Layer 3"><polygon class="cls-1" points="105.57 40.43 48.03 68.46 72 84.19 130.28 56.36 105.57 40.43"/><polygon class="cls-2" points="72 84.19 48.03 68.46 55.72 92.04 47.68 112.72 72.45 128.87 64.68 104.34 72 84.19"/><polygon class="cls-3" points="72 84.19 64.68 104.34 122.04 77.36 130.28 56.36 72 84.19"/><polygon class="cls-4" points="122.04 77.36 130.15 100.12 64.68 104.34 122.04 77.36"/><polygon class="cls-3" points="130.15 100.12 72.45 128.87 64.68 104.34 130.15 100.12"/><circle class="cls-5" cx="87.6" cy="81.91" r="62.48"/><path class="cls-6" d="M73,56.33c5.63-36.59,31.54-12.8,27,14.46l3.71-1.72c3.34-35.81-30.32-50.64-34.3-11Z"/><path class="cls-3" d="M311.79,98.27a17.42,17.42,0,0,1-17.57-17.72,17.24,17.24,0,0,1,17.46-17.43c10.11,0,17.63,7.49,17.62,17.57A17.3,17.3,0,0,1,311.79,98.27Zm0-27.22a9.6,9.6,0,1,0,9.61,9.68A9.7,9.7,0,0,0,311.77,71.05Z"/><path class="cls-3" d="M271,97.65c-3,0-5.66,0-8.31-.05a2.13,2.13,0,0,1-1.33-1c-1.64-2.78-3.22-5.59-4.8-8.41-.81-1.44-3-2.27-4.36-1.46a2.23,2.23,0,0,0-.69,1.68c-.08,2.56-.1,5.12,0,7.68,0,1.27-.46,1.67-1.65,1.62-1.61-.07-3.23-.06-4.84,0-1,0-1.5-.3-1.5-1.42q0-15.61,0-31.23c0-1.05.42-1.33,1.39-1.33,4.39,0,8.78,0,13.17,0a11.28,11.28,0,0,1,10.53,7.38,11.54,11.54,0,0,1-3.1,12.66c-1.13,1-1.26,1.65-.51,2.91,1.88,3.16,3.61,6.4,5.39,9.61C270.53,96.58,270.65,96.93,271,97.65ZM251.44,75.24a9.83,9.83,0,0,0,.05,2.49c.14.54.76,1.31,1.21,1.34a34.57,34.57,0,0,0,5.48,0,4.06,4.06,0,0,0,3.51-3.68,3.68,3.68,0,0,0-3.06-4,13.4,13.4,0,0,0-3-.26C250.92,71.16,251.48,70.54,251.44,75.24Z"/><path class="cls-3" d="M233.61,76.3v9.35c0,5.72-2.77,9.79-8.18,11.67S215.1,98.56,210.65,95a10.27,10.27,0,0,1-4-8.28c0-7.13,0-14.25,0-21.37,0-1.34.38-1.79,1.7-1.7a32.93,32.93,0,0,0,4.33,0c1.41-.09,2,.33,1.93,1.86-.08,6.45,0,12.91,0,19.37,0,2.91.74,4.05,3.22,5s5.58.45,6.8-1.25a6.24,6.24,0,0,0,1-3.38c.09-6.62.08-13.24,0-19.87,0-1.32.36-1.79,1.7-1.69a38.13,38.13,0,0,0,4.66,0c1.21-.07,1.68.31,1.65,1.59C233.56,69,233.61,72.63,233.61,76.3Z"/><path class="cls-3" d="M436.31,63.69c3,0,6,0,9,0,1.12,0,1.64.3,1.57,1.51a41.88,41.88,0,0,0,0,4.34c.06,1.26-.51,1.64-1.69,1.63-3.61,0-7.23.07-10.84,0-1.53,0-2.32.42-2.35,2a5.93,5.93,0,0,1-.19,1.33c-.31,1.26.24,1.7,1.46,1.75a43.16,43.16,0,0,1,6.45.48c5,1,8.06,4.27,8.35,8.66.41,6.13-1.94,10.34-7.05,12.06a18.27,18.27,0,0,1-14.39-1.06,8.8,8.8,0,0,1-4.83-6.63c-.2-1.12.08-1.84,1.35-2,1.71-.17,3.42-.45,5.13-.54a1.81,1.81,0,0,1,1.24.83,7.24,7.24,0,0,0,9.92,1.49,3.44,3.44,0,0,0-.46-5.85,7.7,7.7,0,0,0-3.17-.8c-3.61-.11-7.22-.1-10.83-.06-1.35,0-1.71-.46-1.53-1.8.71-5.29,1.36-10.6,2-15.9.12-1.07.53-1.44,1.57-1.43C430.09,63.72,433.2,63.69,436.31,63.69Z"/><path class="cls-3" d="M402.1,63.7c3.06,0,6.11,0,9.17,0,1,0,1.43.27,1.4,1.31-.05,1.5-.06,3,0,4.51.05,1.21-.39,1.68-1.64,1.66q-5.5-.09-11,0c-.67,0-1.78.39-1.9.83a11.61,11.61,0,0,0-.26,3.73c0,.17,1.05.38,1.63.43a61.87,61.87,0,0,1,6.27.56c4.91,1,7.85,4.26,8.15,8.66.42,5.92-1.89,10.18-6.8,11.9A17.94,17.94,0,0,1,391.85,96a8.59,8.59,0,0,1-4.19-6.33c-.18-1,.08-1.75,1.27-1.87,1.71-.17,3.42-.43,5.13-.51a1.92,1.92,0,0,1,1.29.8,7.26,7.26,0,0,0,9.54,1.76,3.6,3.6,0,0,0,1.78-3.36,3.16,3.16,0,0,0-2.11-2.94,7.83,7.83,0,0,0-2.72-.64c-3.66-.08-7.33-.1-11,0-1.34,0-1.74-.35-1.54-1.74q1.08-7.94,2-15.9c.14-1.27.71-1.53,1.84-1.51,3,.06,6,0,9,0Z"/><path class="cls-3" d="M184.76,98.27c-11,0-18.54-6.63-19.53-15.33-1.08-9.42,4.4-17.28,13.51-19.4a17.58,17.58,0,0,1,18.43,7.12c.64,1,.64,1.54-.46,2.07a28.69,28.69,0,0,0-3.66,2c-1.41,1-2.31.77-3.47-.54a8.65,8.65,0,0,0-9.82-2.64,9.4,9.4,0,0,0-6.7,8.17,9.51,9.51,0,0,0,5.44,9.51,9.28,9.28,0,0,0,10.87-1.93c1.84-2,1.84-2,4.25-.68l2.78,1.52c1.72,1,1.78,1.11.57,2.74C193.39,95.7,188.59,98.16,184.76,98.27Z"/><path class="cls-3" d="M469.24,97.66c-3.83,0-7.67,0-11.5,0-1.27,0-1.68-.41-1.57-1.65.69-8,3.84-14.22,12-17a28.4,28.4,0,0,0,5.13-2.37c2.14-1.25,2.25-3.26.47-5-2.66-2.55-8.28-1.87-10.15,1.33a1.89,1.89,0,0,1-2.25,1.13c-1.42-.23-2.87-.25-4.31-.35-1.17-.08-1.53-.61-1.18-1.78a11.55,11.55,0,0,1,4.54-6.21A16.33,16.33,0,0,1,478,65.51a9.82,9.82,0,0,1,.33,16.36c-2.13,1.45-4.67,2.29-7,3.53a46.06,46.06,0,0,0-4.68,3,1.41,1.41,0,0,0-.39,1.31c.13.29.83.46,1.28.47,4.27,0,8.56.08,12.83,0,1.58,0,2.07.56,2,2a25.11,25.11,0,0,0,0,3.68c.1,1.28-.33,1.8-1.66,1.78C476.91,97.62,473.08,97.66,469.24,97.66Z"/><path class="cls-3" d="M371.72,63.69l-8,16.64c-.38.8-.78,1.59-1.17,2.39-.46,1-.22,1.51.88,1.57.27,0,.55,0,.83,0,2.45,0,5.06-.18,5.06-.18s-.14-2.2-.1-4.61c0-1.17.33-1.77,1.61-1.72,1.55.06,3.11,0,4.66,0,1.19,0,1.58.51,1.53,1.62s0,2,0,3c0,.72,0,1.9,0,1.9s1,0,1.65,0h1.57l0,1.57,0,4.34v1.44l-1.45,0-1.82,0V93.6l0,4h-7.8l0-3.59,0-2.29-2.41-.05s-7.89,0-11.83,0c-1.42,0-1.89-.39-2-1.87A19.9,19.9,0,0,1,355.43,79c2.43-4.49,4.53-9.17,6.69-13.81a2.24,2.24,0,0,1,2.42-1.52C366.79,63.75,369.05,63.69,371.72,63.69Z"/><path class="cls-3" d="M286,80.56c0,5.12,0,10.24,0,15.36,0,1.32-.39,1.82-1.71,1.75a33.64,33.64,0,0,0-4.49,0c-1.45.12-1.78-.46-1.78-1.81.05-8.4,0-16.81,0-25.21,0-1.9,0-3.79,0-5.68,0-1,.38-1.35,1.39-1.3,1.66.09,3.33.08,5,0,1.13,0,1.57.32,1.56,1.52-.06,5.12,0,10.24,0,15.36Z"/></g></svg>